<svg xmlns="http://www.w3.org/2000/svg" viewBox="0 0 1000 1000"><title>profile</title><path d="M497.27,623C620,623,719.84,523.2,719.84,400.47S620,177.89,497.27,177.89,274.69,277.73,274.69,400.47,374.53,623,497.27,623Zm0-378.49c86,0,155.91,69.95,155.91,155.91S583.23,556.38,497.27,556.38,341.35,486.43,341.35,400.47,411.3,244.56,497.27,244.56Z"/><path d="M1000,500C1000,224.3,775.7,0,500,0S0,224.3,0,500C0,626.85,49.62,749.22,136.48,841.68l-1.4,1.29,26.64,24.52,22.58,20.79,1.05-1C274.53,959.93,384.93,1000,500,1000s225.47-40.07,314.65-112.69l1.05,1,22.58-20.79L864.92,843l-1.4-1.29C950.38,749.22,1000,626.85,1000,500ZM500,66.67c238.93,0,433.33,194.39,433.33,433.33,0,110.46-43.07,217.34-119.11,297.64-2.12-1.72-4.4-3.19-6.55-4.87-5.08-4-10.29-7.74-15.49-11.51-6.93-5-13.92-9.93-21.07-14.58-5.44-3.53-10.94-6.91-16.5-10.22q-10.89-6.49-22-12.4c-5.72-3-11.46-6-17.28-8.77-7.62-3.66-15.33-7-23.1-10.31-5.89-2.47-11.76-4.93-17.73-7.17-8-3-16.2-5.67-24.38-8.27-5.92-1.87-11.8-3.84-17.79-5.49-8.63-2.38-17.37-4.31-26.13-6.22-5.72-1.25-11.37-2.68-17.14-3.73-9.78-1.78-19.67-3-29.57-4.18-4.88-.59-9.69-1.44-14.6-1.89C530,686.7,515,685.94,500,685.94s-30,.76-44.86,2.1c-4.9.44-9.71,1.3-14.6,1.89-9.9,1.19-19.79,2.4-29.57,4.18-5.76,1-11.42,2.48-17.14,3.73-8.76,1.91-17.5,3.84-26.13,6.22-6,1.65-11.87,3.61-17.79,5.49-8.18,2.6-16.34,5.25-24.38,8.27-6,2.24-11.84,4.71-17.73,7.17-7.77,3.26-15.48,6.65-23.1,10.31-5.82,2.8-11.56,5.74-17.28,8.77q-11.17,5.92-22,12.4c-5.56,3.31-11.07,6.68-16.5,10.22-7.15,4.65-14.13,9.55-21.07,14.58-5.2,3.77-10.41,7.53-15.49,11.51-2.15,1.68-4.43,3.15-6.55,4.87C109.74,717.34,66.67,610.46,66.67,500,66.67,261.05,261.07,66.67,500,66.67ZM236,843c0.4-.31.76-0.66,1.16-1,2.6-2,5.36-3.75,8-5.68,7.66-5.61,15.4-11.1,23.37-16.17,4-2.52,8-4.78,12.08-7.16,6.91-4.09,13.84-8.1,20.94-11.79,4.52-2.35,9.12-4.5,13.71-6.68,6.87-3.26,13.79-6.4,20.81-9.3,4.82-2,9.68-3.86,14.56-5.67,7.06-2.61,14.2-5,21.39-7.26,4.93-1.54,9.87-3.06,14.86-4.42,7.47-2,15-3.76,22.6-5.39,4.82-1,9.61-2.17,14.47-3,8.37-1.5,16.83-2.57,25.3-3.58,4.15-.49,8.27-1.18,12.44-1.55,12.68-1.13,25.44-1.8,38.28-1.8s25.6,0.67,38.28,1.8c4.17,0.37,8.29,1.06,12.44,1.55,8.47,1,16.93,2.08,25.3,3.58,4.86,0.87,9.65,2,14.47,3,7.58,1.63,15.13,3.35,22.6,5.39,5,1.36,9.92,2.88,14.86,4.42,7.19,2.24,14.32,4.64,21.39,7.26,4.88,1.81,9.75,3.68,14.56,5.67,7,2.89,13.95,6,20.81,9.3,4.59,2.18,9.19,4.33,13.71,6.68,7.1,3.69,14,7.71,20.94,11.79,4,2.38,8.12,4.64,12.08,7.16,8,5.07,15.71,10.56,23.37,16.17,2.64,1.94,5.4,3.68,8,5.68,0.4,0.3.76,0.66,1.16,1A431.06,431.06,0,0,1,236,843Z"/></svg>