<svg xmlns="http://www.w3.org/2000/svg" viewBox="0 0 1000 1000"><title>settings</title><path d="M628.78,1001H375.56L355.07,870.73q-6.19-2.62-12.21-5.43L237.71,941.62,58.57,762.73,134.63,657.5q-2.81-6.2-5.25-12.09L-1,625V371.73l130.64-20.42c1.8-4.17,3.65-8.24,5.51-12.18L58.87,234.2,237.93,55.3l105.56,76.95q5.73-2.4,11.78-4.72L375.64,0H628.7L649,127.34q5.79,2.14,11.66,4.53L766.3,55.07,945.17,234.15l-77,105.59q2.36,5.67,4.67,11.75L1000,371.85v253L873,645.24c-1.42,3.91-2.89,7.81-4.45,11.7l76.84,105.84L766.51,941.9,661.24,865.74q-6.14,2.75-12.05,5.18Zm-187.6-77H563.13l17.36-110.5,22.32-7.25c13.51-4.43,28.26-10.7,45.09-19.23l20.88-10.57,89.68,64.89,86.37-86.46-65.18-89.78,10.61-20.92c6.93-13.67,12-28.53,17.44-45.13l7.17-22.23L923,559.45V437.3L814.88,420l-7.23-22.24c-6-18.27-11.7-32.6-18-45.09l-10.62-21,65.47-89.71-86.1-86.21-89.6,65.15-20.94-10.61c-14.41-7.31-30.17-12.83-45.05-17.71l-22.26-7.17L563.21,77H441.1L423.77,185.39l-22.25,7.23c-17.76,5.82-32.09,11.58-45.09,18.17l-21,10.61L245.75,156l-86.23,86.14,65.15,89.62-10.61,20.93c-8.55,16.87-15.47,30.91-20.11,45.06l-7.2,22.33L76,437.42V559.33l110.76,17.36L194,599c4.33,13.2,10.46,27.53,19.36,45.09L223.95,665l-64.83,89.68L245.62,841l89.8-65.18,20.92,10.6c16.9,8.57,31,15.22,45.14,19.84l22.31,7.19Z"/><path d="M500,727C374.83,727,273,625.17,273,500S374.83,272.9,500,272.9,727.1,374.76,727.1,500,625.24,727,500,727Zm0-377.37c-82.88,0-150.31,67.43-150.31,150.31S417.15,650.28,500,650.28,650.34,582.85,650.34,500,582.91,349.66,500,349.66Z"/></svg>